<svg viewBox="-16 -32 880 192" width="880" height="192" xmlns="http://www.w3.org/2000/svg"><desc>Generated with https://github.com/Platane/snk</desc><style>:root{--cb:#1b1f230a;--cs:#FDB927;--ce:#171A22;--c0:#171A22;--c1:#7B2BF4;--c2:#7B3FD6;--c3:#9156F5;--c4:#9669D6}.c{shape-rendering:geometricPrecision;fill:var(--ce);stroke-width:1px;stroke:var(--cb);animation:none 14500ms linear infinite;width:12px;height:12px}@keyframes c0{15.85%{fill:var(--c1)}15.87%,100%{fill:var(--ce)}}.c.c0{fill:var(--c1);animation-name:c0}@keyframes c1{15.16%{fill:var(--c1)}15.18%,100%{fill:var(--ce)}}.c.c1{fill:var(--c1);animation-name:c1}@keyframes c2{9.65%{fill:var(--c1)}9.67%,100%{fill:var(--ce)}}.c.c2{fill:var(--c1);animation-name:c2}@keyframes c3{10.33%{fill:var(--c1)}10.35%,100%{fill:var(--ce)}}.c.c3{fill:var(--c1);animation-name:c3}@keyframes c4{14.47%{fill:var(--c1)}14.49%,100%{fill:var(--ce)}}.c.c4{fill:var(--c1);animation-name:c4}@keyframes c5{11.71%{fill:var(--c1)}11.73%,100%{fill:var(--ce)}}.c.c5{fill:var(--c1);animation-name:c5}@keyframes c6{13.78%{fill:var(--c1)}13.8%,100%{fill:var(--ce)}}.c.c6{fill:var(--c1);animation-name:c6}@keyframes c7{18.61%{fill:var(--c1)}18.63%,100%{fill:var(--ce)}}.c.c7{fill:var(--c1);animation-name:c7}@keyframes c8{12.4%{fill:var(--c1)}12.42%,100%{fill:var(--ce)}}.c.c8{fill:var(--c1);animation-name:c8}@keyframes c9{82.06%{fill:var(--c2)}82.08%,100%{fill:var(--ce)}}.c.c9{fill:var(--c2);animation-name:c9}@keyframes ca{81.37%{fill:var(--c2)}81.39%,100%{fill:var(--ce)}}.c.ca{fill:var(--c2);animation-name:ca}@keyframes cb{80.68%{fill:var(--c2)}80.7%,100%{fill:var(--ce)}}.c.cb{fill:var(--c2);animation-name:cb}@keyframes cc{85.51%{fill:var(--c4)}85.53%,100%{fill:var(--ce)}}.c.cc{fill:var(--c4);animation-name:cc}@keyframes cd{19.99%{fill:var(--c1)}20.01%,100%{fill:var(--ce)}}.c.cd{fill:var(--c1);animation-name:cd}@keyframes ce{23.44%{fill:var(--c1)}23.46%,100%{fill:var(--ce)}}.c.ce{fill:var(--c1);animation-name:ce}@keyframes cf{22.75%{fill:var(--c1)}22.77%,100%{fill:var(--ce)}}.c.cf{fill:var(--c1);animation-name:cf}@keyframes cg{22.06%{fill:var(--c1)}22.08%,100%{fill:var(--ce)}}.c.cg{fill:var(--c1);animation-name:cg}@keyframes ch{24.82%{fill:var(--c1)}24.84%,100%{fill:var(--ce)}}.c.ch{fill:var(--c1);animation-name:ch}@keyframes ci{25.51%{fill:var(--c1)}25.53%,100%{fill:var(--ce)}}.c.ci{fill:var(--c1);animation-name:ci}@keyframes cj{26.2%{fill:var(--c1)}26.22%,100%{fill:var(--ce)}}.c.cj{fill:var(--c1);animation-name:cj}@keyframes ck{28.96%{fill:var(--c1)}28.98%,100%{fill:var(--ce)}}.c.ck{fill:var(--c1);animation-name:ck}@keyframes cl{28.27%{fill:var(--c1)}28.29%,100%{fill:var(--ce)}}.c.cl{fill:var(--c1);animation-name:cl}@keyframes cm{33.78%{fill:var(--c1)}33.8%,100%{fill:var(--ce)}}.c.cm{fill:var(--c1);animation-name:cm}@keyframes cn{45.51%{fill:var(--c1)}45.53%,100%{fill:var(--ce)}}.c.cn{fill:var(--c1);animation-name:cn}@keyframes co{52.4%{fill:var(--c1)}52.42%,100%{fill:var(--ce)}}.c.co{fill:var(--c1);animation-name:co}@keyframes cp{61.37%{fill:var(--c2)}61.39%,100%{fill:var(--ce)}}.c.cp{fill:var(--c2);animation-name:cp}@keyframes cq{60.68%{fill:var(--c1)}60.7%,100%{fill:var(--ce)}}.c.cq{fill:var(--c1);animation-name:cq}@keyframes cr{55.16%{fill:var(--c1)}55.18%,100%{fill:var(--ce)}}.c.cr{fill:var(--c1);animation-name:cr}@keyframes cs{55.85%{fill:var(--c1)}55.87%,100%{fill:var(--ce)}}.c.cs{fill:var(--c1);animation-name:cs}.u{transform-origin:0 0;transform:scale(0,1);animation:none linear 14500ms infinite}@keyframes u0{9.65%{transform:scale(0.000,1)}9.67%,10.33%{transform:scale(0.042,1)}10.35%,11.71%{transform:scale(0.083,1)}11.73%,12.4%{transform:scale(0.125,1)}12.42%,13.78%{transform:scale(0.167,1)}13.8%,14.47%{transform:scale(0.208,1)}14.49%,15.16%{transform:scale(0.250,1)}15.18%,15.85%{transform:scale(0.292,1)}15.87%,18.61%{transform:scale(0.333,1)}18.63%,19.99%{transform:scale(0.375,1)}20.01%,22.06%{transform:scale(0.417,1)}22.08%,22.75%{transform:scale(0.458,1)}22.77%,23.44%{transform:scale(0.500,1)}23.46%,24.82%{transform:scale(0.542,1)}24.84%,25.51%{transform:scale(0.583,1)}25.53%,26.2%{transform:scale(0.625,1)}26.22%,28.27%{transform:scale(0.667,1)}28.29%,28.96%{transform:scale(0.708,1)}28.98%,33.78%{transform:scale(0.750,1)}33.8%,45.51%{transform:scale(0.792,1)}45.53%,52.4%{transform:scale(0.833,1)}52.42%,55.16%{transform:scale(0.875,1)}55.18%,55.85%{transform:scale(0.917,1)}55.87%,60.68%{transform:scale(0.958,1)}60.7%,100%{transform:scale(1.000,1)}}.u.u0{fill:var(--c1);animation-name:u0;transform-origin:0.0px 0}@keyframes u1{61.37%{transform:scale(0.000,1)}61.39%,80.68%{transform:scale(0.250,1)}80.7%,81.37%{transform:scale(0.500,1)}81.39%,82.06%{transform:scale(0.750,1)}82.08%,100%{transform:scale(1.000,1)}}.u.u1{fill:var(--c2);animation-name:u1;transform-origin:701.8px 0}@keyframes u2{85.51%{transform:scale(0.000,1)}85.53%,100%{transform:scale(1.000,1)}}.u.u2{fill:var(--c4);animation-name:u2;transform-origin:818.8px 0}.s{shape-rendering:geometricPrecision;fill:var(--cs);animation:none linear 14500ms infinite}@keyframes s0{0%,99.31%{transform:translate(0px,-16px)}0.69%{transform:translate(0px,0px)}8.97%{transform:translate(192px,0px)}10.34%{transform:translate(192px,32px)}11.03%{transform:translate(208px,32px)}11.72%,17.24%{transform:translate(208px,48px)}12.41%{transform:translate(224px,48px)}13.1%{transform:translate(224px,64px)}15.17%{transform:translate(176px,64px)}15.86%{transform:translate(176px,48px)}18.62%{transform:translate(208px,80px)}20.69%{transform:translate(256px,80px)}23.45%,82.76%{transform:translate(256px,16px)}24.83%{transform:translate(288px,16px)}26.21%{transform:translate(288px,48px)}27.59%{transform:translate(320px,48px)}28.97%{transform:translate(320px,16px)}29.66%{transform:translate(336px,16px)}30.34%{transform:translate(336px,32px)}31.03%{transform:translate(320px,32px)}33.79%{transform:translate(320px,96px)}42.07%{transform:translate(512px,96px)}45.52%{transform:translate(512px,16px)}55.17%{transform:translate(736px,16px)}55.86%{transform:translate(736px,32px)}57.93%{transform:translate(688px,32px)}60%{transform:translate(688px,80px)}60.69%{transform:translate(672px,80px)}62.07%{transform:translate(672px,48px)}80.69%{transform:translate(240px,48px)}82.07%{transform:translate(240px,16px)}83.45%{transform:translate(256px,32px)}84.14%{transform:translate(240px,32px)}85.52%{transform:translate(240px,64px)}91.03%{transform:translate(112px,64px)}91.72%{transform:translate(112px,48px)}92.41%{transform:translate(96px,48px)}93.79%{transform:translate(96px,16px)}95.86%{transform:translate(48px,16px)}97.24%{transform:translate(48px,-16px)}}.s.s0{transform:translate(0px,-16px);animation-name:s0}@keyframes s1{0%,99.31%{transform:translate(16px,-16px)}0.69%{transform:translate(0px,-16px)}1.38%{transform:translate(0px,0px)}9.66%{transform:translate(192px,0px)}11.03%{transform:translate(192px,32px)}11.72%{transform:translate(208px,32px)}12.41%,17.93%{transform:translate(208px,48px)}13.1%{transform:translate(224px,48px)}13.79%{transform:translate(224px,64px)}15.86%{transform:translate(176px,64px)}16.55%{transform:translate(176px,48px)}19.31%{transform:translate(208px,80px)}21.38%{transform:translate(256px,80px)}24.14%,83.45%{transform:translate(256px,16px)}25.52%{transform:translate(288px,16px)}26.9%{transform:translate(288px,48px)}28.28%{transform:translate(320px,48px)}29.66%{transform:translate(320px,16px)}30.34%{transform:translate(336px,16px)}31.03%{transform:translate(336px,32px)}31.72%{transform:translate(320px,32px)}34.48%{transform:translate(320px,96px)}42.76%{transform:translate(512px,96px)}46.21%{transform:translate(512px,16px)}55.86%{transform:translate(736px,16px)}56.55%{transform:translate(736px,32px)}58.62%{transform:translate(688px,32px)}60.69%{transform:translate(688px,80px)}61.38%{transform:translate(672px,80px)}62.76%{transform:translate(672px,48px)}81.38%{transform:translate(240px,48px)}82.76%{transform:translate(240px,16px)}84.14%{transform:translate(256px,32px)}84.83%{transform:translate(240px,32px)}86.21%{transform:translate(240px,64px)}91.72%{transform:translate(112px,64px)}92.41%{transform:translate(112px,48px)}93.1%{transform:translate(96px,48px)}94.48%{transform:translate(96px,16px)}96.55%{transform:translate(48px,16px)}97.93%{transform:translate(48px,-16px)}}.s.s1{transform:translate(16px,-16px);animation-name:s1}@keyframes s2{0%,99.31%{transform:translate(32px,-16px)}1.38%{transform:translate(0px,-16px)}2.07%{transform:translate(0px,0px)}10.34%{transform:translate(192px,0px)}11.72%{transform:translate(192px,32px)}12.41%{transform:translate(208px,32px)}13.1%,18.62%{transform:translate(208px,48px)}13.79%{transform:translate(224px,48px)}14.48%{transform:translate(224px,64px)}16.55%{transform:translate(176px,64px)}17.24%{transform:translate(176px,48px)}20%{transform:translate(208px,80px)}22.07%{transform:translate(256px,80px)}24.83%,84.14%{transform:translate(256px,16px)}26.21%{transform:translate(288px,16px)}27.59%{transform:translate(288px,48px)}28.97%{transform:translate(320px,48px)}30.34%{transform:translate(320px,16px)}31.03%{transform:translate(336px,16px)}31.72%{transform:translate(336px,32px)}32.41%{transform:translate(320px,32px)}35.17%{transform:translate(320px,96px)}43.45%{transform:translate(512px,96px)}46.9%{transform:translate(512px,16px)}56.55%{transform:translate(736px,16px)}57.24%{transform:translate(736px,32px)}59.31%{transform:translate(688px,32px)}61.38%{transform:translate(688px,80px)}62.07%{transform:translate(672px,80px)}63.45%{transform:translate(672px,48px)}82.07%{transform:translate(240px,48px)}83.45%{transform:translate(240px,16px)}84.83%{transform:translate(256px,32px)}85.52%{transform:translate(240px,32px)}86.9%{transform:translate(240px,64px)}92.41%{transform:translate(112px,64px)}93.1%{transform:translate(112px,48px)}93.79%{transform:translate(96px,48px)}95.17%{transform:translate(96px,16px)}97.24%{transform:translate(48px,16px)}98.62%{transform:translate(48px,-16px)}}.s.s2{transform:translate(32px,-16px);animation-name:s2}@keyframes s3{0%,99.31%{transform:translate(48px,-16px)}2.07%{transform:translate(0px,-16px)}2.76%{transform:translate(0px,0px)}11.03%{transform:translate(192px,0px)}12.41%{transform:translate(192px,32px)}13.1%{transform:translate(208px,32px)}13.79%,19.31%{transform:translate(208px,48px)}14.48%{transform:translate(224px,48px)}15.17%{transform:translate(224px,64px)}17.24%{transform:translate(176px,64px)}17.93%{transform:translate(176px,48px)}20.69%{transform:translate(208px,80px)}22.76%{transform:translate(256px,80px)}25.52%,84.83%{transform:translate(256px,16px)}26.9%{transform:translate(288px,16px)}28.28%{transform:translate(288px,48px)}29.66%{transform:translate(320px,48px)}31.03%{transform:translate(320px,16px)}31.72%{transform:translate(336px,16px)}32.41%{transform:translate(336px,32px)}33.1%{transform:translate(320px,32px)}35.86%{transform:translate(320px,96px)}44.14%{transform:translate(512px,96px)}47.59%{transform:translate(512px,16px)}57.24%{transform:translate(736px,16px)}57.93%{transform:translate(736px,32px)}60%{transform:translate(688px,32px)}62.07%{transform:translate(688px,80px)}62.76%{transform:translate(672px,80px)}64.14%{transform:translate(672px,48px)}82.76%{transform:translate(240px,48px)}84.14%{transform:translate(240px,16px)}85.52%{transform:translate(256px,32px)}86.21%{transform:translate(240px,32px)}87.59%{transform:translate(240px,64px)}93.1%{transform:translate(112px,64px)}93.79%{transform:translate(112px,48px)}94.48%{transform:translate(96px,48px)}95.86%{transform:translate(96px,16px)}97.93%{transform:translate(48px,16px)}}.s.s3{transform:translate(48px,-16px);animation-name:s3}</style><rect class="c" x="2" y="2" rx="2" ry="2"/><rect class="c" x="2" y="18" rx="2" ry="2"/><rect class="c" x="2" y="34" rx="2" ry="2"/><rect class="c" x="2" y="50" rx="2" ry="2"/><rect class="c" x="2" y="66" rx="2" ry="2"/><rect class="c" x="2" y="82" rx="2" ry="2"/><rect class="c" x="2" y="98" rx="2" ry="2"/><rect class="c" x="18" y="2" rx="2" ry="2"/><rect class="c" x="18" y="18" rx="2" ry="2"/><rect class="c" x="18" y="34" rx="2" ry="2"/><rect class="c" x="18" y="50" rx="2" ry="2"/><rect class="c" x="18" y="66" rx="2" ry="2"/><rect class="c" x="18" y="82" rx="2" ry="2"/><rect class="c" x="18" y="98" rx="2" ry="2"/><rect class="c" x="34" y="2" rx="2" ry="2"/><rect class="c" x="34" y="18" rx="2" ry="2"/><rect class="c" x="34" y="34" rx="2" ry="2"/><rect class="c" x="34" y="50" rx="2" ry="2"/><rect class="c" x="34" y="66" rx="2" ry="2"/><rect class="c" x="34" y="82" rx="2" ry="2"/><rect class="c" x="34" y="98" rx="2" ry="2"/><rect class="c" x="50" y="2" rx="2" ry="2"/><rect class="c" x="50" y="18" rx="2" ry="2"/><rect class="c" x="50" y="34" rx="2" ry="2"/><rect class="c" x="50" y="50" rx="2" ry="2"/><rect class="c" x="50" y="66" rx="2" ry="2"/><rect class="c" x="50" y="82" rx="2" ry="2"/><rect class="c" x="50" y="98" rx="2" ry="2"/><rect class="c" x="66" y="2" rx="2" ry="2"/><rect class="c" x="66" y="18" rx="2" ry="2"/><rect class="c" x="66" y="34" rx="2" ry="2"/><rect class="c" x="66" y="50" rx="2" ry="2"/><rect class="c" x="66" y="66" rx="2" ry="2"/><rect class="c" x="66" y="82" rx="2" ry="2"/><rect class="c" x="66" y="98" rx="2" ry="2"/><rect class="c" x="82" y="2" rx="2" ry="2"/><rect class="c" x="82" y="18" rx="2" ry="2"/><rect class="c" x="82" y="34" rx="2" ry="2"/><rect class="c" x="82" y="50" rx="2" ry="2"/><rect class="c" x="82" y="66" rx="2" ry="2"/><rect class="c" x="82" y="82" rx="2" ry="2"/><rect class="c" x="82" y="98" rx="2" ry="2"/><rect class="c" x="98" y="2" rx="2" ry="2"/><rect class="c" x="98" y="18" rx="2" ry="2"/><rect class="c" x="98" y="34" rx="2" ry="2"/><rect class="c" x="98" y="50" rx="2" ry="2"/><rect class="c" x="98" y="66" rx="2" ry="2"/><rect class="c" x="98" y="82" rx="2" ry="2"/><rect class="c" x="98" y="98" rx="2" ry="2"/><rect class="c" x="114" y="2" rx="2" ry="2"/><rect class="c" x="114" y="18" rx="2" ry="2"/><rect class="c" x="114" y="34" rx="2" ry="2"/><rect class="c" x="114" y="50" rx="2" ry="2"/><rect class="c" x="114" y="66" rx="2" ry="2"/><rect class="c" x="114" y="82" rx="2" ry="2"/><rect class="c" x="114" y="98" rx="2" ry="2"/><rect class="c" x="130" y="2" rx="2" ry="2"/><rect class="c" x="130" y="18" rx="2" ry="2"/><rect class="c" x="130" y="34" rx="2" ry="2"/><rect class="c" x="130" y="50" rx="2" ry="2"/><rect class="c" x="130" y="66" rx="2" ry="2"/><rect class="c" x="130" y="82" rx="2" ry="2"/><rect class="c" x="130" y="98" rx="2" ry="2"/><rect class="c" x="146" y="2" rx="2" ry="2"/><rect class="c" x="146" y="18" rx="2" ry="2"/><rect class="c" x="146" y="34" rx="2" ry="2"/><rect class="c" x="146" y="50" rx="2" ry="2"/><rect class="c" x="146" y="66" rx="2" ry="2"/><rect class="c" x="146" y="82" rx="2" ry="2"/><rect class="c" x="146" y="98" rx="2" ry="2"/><rect class="c" x="162" y="2" rx="2" ry="2"/><rect class="c" x="162" y="18" rx="2" ry="2"/><rect class="c" x="162" y="34" rx="2" ry="2"/><rect class="c" x="162" y="50" rx="2" ry="2"/><rect class="c" x="162" y="66" rx="2" ry="2"/><rect class="c" x="162" y="82" rx="2" ry="2"/><rect class="c" x="162" y="98" rx="2" ry="2"/><rect class="c" x="178" y="2" rx="2" ry="2"/><rect class="c" x="178" y="18" rx="2" ry="2"/><rect class="c" x="178" y="34" rx="2" ry="2"/><rect class="c c0" x="178" y="50" rx="2" ry="2"/><rect class="c c1" x="178" y="66" rx="2" ry="2"/><rect class="c" x="178" y="82" rx="2" ry="2"/><rect class="c" x="178" y="98" rx="2" ry="2"/><rect class="c" x="194" y="2" rx="2" ry="2"/><rect class="c c2" x="194" y="18" rx="2" ry="2"/><rect class="c c3" x="194" y="34" rx="2" ry="2"/><rect class="c" x="194" y="50" rx="2" ry="2"/><rect class="c c4" x="194" y="66" rx="2" ry="2"/><rect class="c" x="194" y="82" rx="2" ry="2"/><rect class="c" x="194" y="98" rx="2" ry="2"/><rect class="c" x="210" y="2" rx="2" ry="2"/><rect class="c" x="210" y="18" rx="2" ry="2"/><rect class="c" x="210" y="34" rx="2" ry="2"/><rect class="c c5" x="210" y="50" rx="2" ry="2"/><rect class="c c6" x="210" y="66" rx="2" ry="2"/><rect class="c c7" x="210" y="82" rx="2" ry="2"/><rect class="c" x="210" y="98" rx="2" ry="2"/><rect class="c" x="226" y="2" rx="2" ry="2"/><rect class="c" x="226" y="18" rx="2" ry="2"/><rect class="c" x="226" y="34" rx="2" ry="2"/><rect class="c c8" x="226" y="50" rx="2" ry="2"/><rect class="c" x="226" y="66" rx="2" ry="2"/><rect class="c" x="226" y="82" rx="2" ry="2"/><rect class="c" x="226" y="98" rx="2" ry="2"/><rect class="c" x="242" y="2" rx="2" ry="2"/><rect class="c c9" x="242" y="18" rx="2" ry="2"/><rect class="c ca" x="242" y="34" rx="2" ry="2"/><rect class="c cb" x="242" y="50" rx="2" ry="2"/><rect class="c cc" x="242" y="66" rx="2" ry="2"/><rect class="c cd" x="242" y="82" rx="2" ry="2"/><rect class="c" x="242" y="98" rx="2" ry="2"/><rect class="c" x="258" y="2" rx="2" ry="2"/><rect class="c ce" x="258" y="18" rx="2" ry="2"/><rect class="c cf" x="258" y="34" rx="2" ry="2"/><rect class="c cg" x="258" y="50" rx="2" ry="2"/><rect class="c" x="258" y="66" rx="2" ry="2"/><rect class="c" x="258" y="82" rx="2" ry="2"/><rect class="c" x="258" y="98" rx="2" ry="2"/><rect class="c" x="274" y="2" rx="2" ry="2"/><rect class="c" x="274" y="18" rx="2" ry="2"/><rect class="c" x="274" y="34" rx="2" ry="2"/><rect class="c" x="274" y="50" rx="2" ry="2"/><rect class="c" x="274" y="66" rx="2" ry="2"/><rect class="c" x="274" y="82" rx="2" ry="2"/><rect class="c" x="274" y="98" rx="2" ry="2"/><rect class="c" x="290" y="2" rx="2" ry="2"/><rect class="c ch" x="290" y="18" rx="2" ry="2"/><rect class="c ci" x="290" y="34" rx="2" ry="2"/><rect class="c cj" x="290" y="50" rx="2" ry="2"/><rect class="c" x="290" y="66" rx="2" ry="2"/><rect class="c" x="290" y="82" rx="2" ry="2"/><rect class="c" x="290" y="98" rx="2" ry="2"/><rect class="c" x="306" y="2" rx="2" ry="2"/><rect class="c" x="306" y="18" rx="2" ry="2"/><rect class="c" x="306" y="34" rx="2" ry="2"/><rect class="c" x="306" y="50" rx="2" ry="2"/><rect class="c" x="306" y="66" rx="2" ry="2"/><rect class="c" x="306" y="82" rx="2" ry="2"/><rect class="c" x="306" y="98" rx="2" ry="2"/><rect class="c" x="322" y="2" rx="2" ry="2"/><rect class="c ck" x="322" y="18" rx="2" ry="2"/><rect class="c cl" x="322" y="34" rx="2" ry="2"/><rect class="c" x="322" y="50" rx="2" ry="2"/><rect class="c" x="322" y="66" rx="2" ry="2"/><rect class="c" x="322" y="82" rx="2" ry="2"/><rect class="c cm" x="322" y="98" rx="2" ry="2"/><rect class="c" x="338" y="2" rx="2" ry="2"/><rect class="c" x="338" y="18" rx="2" ry="2"/><rect class="c" x="338" y="34" rx="2" ry="2"/><rect class="c" x="338" y="50" rx="2" ry="2"/><rect class="c" x="338" y="66" rx="2" ry="2"/><rect class="c" x="338" y="82" rx="2" ry="2"/><rect class="c" x="338" y="98" rx="2" ry="2"/><rect class="c" x="354" y="2" rx="2" ry="2"/><rect class="c" x="354" y="18" rx="2" ry="2"/><rect class="c" x="354" y="34" rx="2" ry="2"/><rect class="c" x="354" y="50" rx="2" ry="2"/><rect class="c" x="354" y="66" rx="2" ry="2"/><rect class="c" x="354" y="82" rx="2" ry="2"/><rect class="c" x="354" y="98" rx="2" ry="2"/><rect class="c" x="370" y="2" rx="2" ry="2"/><rect class="c" x="370" y="18" rx="2" ry="2"/><rect class="c" x="370" y="34" rx="2" ry="2"/><rect class="c" x="370" y="50" rx="2" ry="2"/><rect class="c" x="370" y="66" rx="2" ry="2"/><rect class="c" x="370" y="82" rx="2" ry="2"/><rect class="c" x="370" y="98" rx="2" ry="2"/><rect class="c" x="386" y="2" rx="2" ry="2"/><rect class="c" x="386" y="18" rx="2" ry="2"/><rect class="c" x="386" y="34" rx="2" ry="2"/><rect class="c" x="386" y="50" rx="2" ry="2"/><rect class="c" x="386" y="66" rx="2" ry="2"/><rect class="c" x="386" y="82" rx="2" ry="2"/><rect class="c" x="386" y="98" rx="2" ry="2"/><rect class="c" x="402" y="2" rx="2" ry="2"/><rect class="c" x="402" y="18" rx="2" ry="2"/><rect class="c" x="402" y="34" rx="2" ry="2"/><rect class="c" x="402" y="50" rx="2" ry="2"/><rect class="c" x="402" y="66" rx="2" ry="2"/><rect class="c" x="402" y="82" rx="2" ry="2"/><rect class="c" x="402" y="98" rx="2" ry="2"/><rect class="c" x="418" y="2" rx="2" ry="2"/><rect class="c" x="418" y="18" rx="2" ry="2"/><rect class="c" x="418" y="34" rx="2" ry="2"/><rect class="c" x="418" y="50" rx="2" ry="2"/><rect class="c" x="418" y="66" rx="2" ry="2"/><rect class="c" x="418" y="82" rx="2" ry="2"/><rect class="c" x="418" y="98" rx="2" ry="2"/><rect class="c" x="434" y="2" rx="2" ry="2"/><rect class="c" x="434" y="18" rx="2" ry="2"/><rect class="c" x="434" y="34" rx="2" ry="2"/><rect class="c" x="434" y="50" rx="2" ry="2"/><rect class="c" x="434" y="66" rx="2" ry="2"/><rect class="c" x="434" y="82" rx="2" ry="2"/><rect class="c" x="434" y="98" rx="2" ry="2"/><rect class="c" x="450" y="2" rx="2" ry="2"/><rect class="c" x="450" y="18" rx="2" ry="2"/><rect class="c" x="450" y="34" rx="2" ry="2"/><rect class="c" x="450" y="50" rx="2" ry="2"/><rect class="c" x="450" y="66" rx="2" ry="2"/><rect class="c" x="450" y="82" rx="2" ry="2"/><rect class="c" x="450" y="98" rx="2" ry="2"/><rect class="c" x="466" y="2" rx="2" ry="2"/><rect class="c" x="466" y="18" rx="2" ry="2"/><rect class="c" x="466" y="34" rx="2" ry="2"/><rect class="c" x="466" y="50" rx="2" ry="2"/><rect class="c" x="466" y="66" rx="2" ry="2"/><rect class="c" x="466" y="82" rx="2" ry="2"/><rect class="c" x="466" y="98" rx="2" ry="2"/><rect class="c" x="482" y="2" rx="2" ry="2"/><rect class="c" x="482" y="18" rx="2" ry="2"/><rect class="c" x="482" y="34" rx="2" ry="2"/><rect class="c" x="482" y="50" rx="2" ry="2"/><rect class="c" x="482" y="66" rx="2" ry="2"/><rect class="c" x="482" y="82" rx="2" ry="2"/><rect class="c" x="482" y="98" rx="2" ry="2"/><rect class="c" x="498" y="2" rx="2" ry="2"/><rect class="c" x="498" y="18" rx="2" ry="2"/><rect class="c" x="498" y="34" rx="2" ry="2"/><rect class="c" x="498" y="50" rx="2" ry="2"/><rect class="c" x="498" y="66" rx="2" ry="2"/><rect class="c" x="498" y="82" rx="2" ry="2"/><rect class="c" x="498" y="98" rx="2" ry="2"/><rect class="c" x="514" y="2" rx="2" ry="2"/><rect class="c cn" x="514" y="18" rx="2" ry="2"/><rect class="c" x="514" y="34" rx="2" ry="2"/><rect class="c" x="514" y="50" rx="2" ry="2"/><rect class="c" x="514" y="66" rx="2" ry="2"/><rect class="c" x="514" y="82" rx="2" ry="2"/><rect class="c" x="514" y="98" rx="2" ry="2"/><rect class="c" x="530" y="2" rx="2" ry="2"/><rect class="c" x="530" y="18" rx="2" ry="2"/><rect class="c" x="530" y="34" rx="2" ry="2"/><rect class="c" x="530" y="50" rx="2" ry="2"/><rect class="c" x="530" y="66" rx="2" ry="2"/><rect class="c" x="530" y="82" rx="2" ry="2"/><rect class="c" x="530" y="98" rx="2" ry="2"/><rect class="c" x="546" y="2" rx="2" ry="2"/><rect class="c" x="546" y="18" rx="2" ry="2"/><rect class="c" x="546" y="34" rx="2" ry="2"/><rect class="c" x="546" y="50" rx="2" ry="2"/><rect class="c" x="546" y="66" rx="2" ry="2"/><rect class="c" x="546" y="82" rx="2" ry="2"/><rect class="c" x="546" y="98" rx="2" ry="2"/><rect class="c" x="562" y="2" rx="2" ry="2"/><rect class="c" x="562" y="18" rx="2" ry="2"/><rect class="c" x="562" y="34" rx="2" ry="2"/><rect class="c" x="562" y="50" rx="2" ry="2"/><rect class="c" x="562" y="66" rx="2" ry="2"/><rect class="c" x="562" y="82" rx="2" ry="2"/><rect class="c" x="562" y="98" rx="2" ry="2"/><rect class="c" x="578" y="2" rx="2" ry="2"/><rect class="c" x="578" y="18" rx="2" ry="2"/><rect class="c" x="578" y="34" rx="2" ry="2"/><rect class="c" x="578" y="50" rx="2" ry="2"/><rect class="c" x="578" y="66" rx="2" ry="2"/><rect class="c" x="578" y="82" rx="2" ry="2"/><rect class="c" x="578" y="98" rx="2" ry="2"/><rect class="c" x="594" y="2" rx="2" ry="2"/><rect class="c" x="594" y="18" rx="2" ry="2"/><rect class="c" x="594" y="34" rx="2" ry="2"/><rect class="c" x="594" y="50" rx="2" ry="2"/><rect class="c" x="594" y="66" rx="2" ry="2"/><rect class="c" x="594" y="82" rx="2" ry="2"/><rect class="c" x="594" y="98" rx="2" ry="2"/><rect class="c" x="610" y="2" rx="2" ry="2"/><rect class="c" x="610" y="18" rx="2" ry="2"/><rect class="c" x="610" y="34" rx="2" ry="2"/><rect class="c" x="610" y="50" rx="2" ry="2"/><rect class="c" x="610" y="66" rx="2" ry="2"/><rect class="c" x="610" y="82" rx="2" ry="2"/><rect class="c" x="610" y="98" rx="2" ry="2"/><rect class="c" x="626" y="2" rx="2" ry="2"/><rect class="c" x="626" y="18" rx="2" ry="2"/><rect class="c" x="626" y="34" rx="2" ry="2"/><rect class="c" x="626" y="50" rx="2" ry="2"/><rect class="c" x="626" y="66" rx="2" ry="2"/><rect class="c" x="626" y="82" rx="2" ry="2"/><rect class="c" x="626" y="98" rx="2" ry="2"/><rect class="c" x="642" y="2" rx="2" ry="2"/><rect class="c" x="642" y="18" rx="2" ry="2"/><rect class="c" x="642" y="34" rx="2" ry="2"/><rect class="c" x="642" y="50" rx="2" ry="2"/><rect class="c" x="642" y="66" rx="2" ry="2"/><rect class="c" x="642" y="82" rx="2" ry="2"/><rect class="c" x="642" y="98" rx="2" ry="2"/><rect class="c" x="658" y="2" rx="2" ry="2"/><rect class="c" x="658" y="18" rx="2" ry="2"/><rect class="c" x="658" y="34" rx="2" ry="2"/><rect class="c" x="658" y="50" rx="2" ry="2"/><rect class="c" x="658" y="66" rx="2" ry="2"/><rect class="c" x="658" y="82" rx="2" ry="2"/><rect class="c" x="658" y="98" rx="2" ry="2"/><rect class="c" x="674" y="2" rx="2" ry="2"/><rect class="c co" x="674" y="18" rx="2" ry="2"/><rect class="c" x="674" y="34" rx="2" ry="2"/><rect class="c" x="674" y="50" rx="2" ry="2"/><rect class="c cp" x="674" y="66" rx="2" ry="2"/><rect class="c cq" x="674" y="82" rx="2" ry="2"/><rect class="c" x="674" y="98" rx="2" ry="2"/><rect class="c" x="690" y="2" rx="2" ry="2"/><rect class="c" x="690" y="18" rx="2" ry="2"/><rect class="c" x="690" y="34" rx="2" ry="2"/><rect class="c" x="690" y="50" rx="2" ry="2"/><rect class="c" x="690" y="66" rx="2" ry="2"/><rect class="c" x="690" y="82" rx="2" ry="2"/><rect class="c" x="690" y="98" rx="2" ry="2"/><rect class="c" x="706" y="2" rx="2" ry="2"/><rect class="c" x="706" y="18" rx="2" ry="2"/><rect class="c" x="706" y="34" rx="2" ry="2"/><rect class="c" x="706" y="50" rx="2" ry="2"/><rect class="c" x="706" y="66" rx="2" ry="2"/><rect class="c" x="706" y="82" rx="2" ry="2"/><rect class="c" x="706" y="98" rx="2" ry="2"/><rect class="c" x="722" y="2" rx="2" ry="2"/><rect class="c" x="722" y="18" rx="2" ry="2"/><rect class="c" x="722" y="34" rx="2" ry="2"/><rect class="c" x="722" y="50" rx="2" ry="2"/><rect class="c" x="722" y="66" rx="2" ry="2"/><rect class="c" x="722" y="82" rx="2" ry="2"/><rect class="c" x="722" y="98" rx="2" ry="2"/><rect class="c" x="738" y="2" rx="2" ry="2"/><rect class="c cr" x="738" y="18" rx="2" ry="2"/><rect class="c cs" x="738" y="34" rx="2" ry="2"/><rect class="c" x="738" y="50" rx="2" ry="2"/><rect class="c" x="738" y="66" rx="2" ry="2"/><rect class="c" x="738" y="82" rx="2" ry="2"/><rect class="c" x="738" y="98" rx="2" ry="2"/><rect class="c" x="754" y="2" rx="2" ry="2"/><rect class="c" x="754" y="18" rx="2" ry="2"/><rect class="c" x="754" y="34" rx="2" ry="2"/><rect class="c" x="754" y="50" rx="2" ry="2"/><rect class="c" x="754" y="66" rx="2" ry="2"/><rect class="c" x="754" y="82" rx="2" ry="2"/><rect class="c" x="754" y="98" rx="2" ry="2"/><rect class="c" x="770" y="2" rx="2" ry="2"/><rect class="c" x="770" y="18" rx="2" ry="2"/><rect class="c" x="770" y="34" rx="2" ry="2"/><rect class="c" x="770" y="50" rx="2" ry="2"/><rect class="c" x="770" y="66" rx="2" ry="2"/><rect class="c" x="770" y="82" rx="2" ry="2"/><rect class="c" x="770" y="98" rx="2" ry="2"/><rect class="c" x="786" y="2" rx="2" ry="2"/><rect class="c" x="786" y="18" rx="2" ry="2"/><rect class="c" x="786" y="34" rx="2" ry="2"/><rect class="c" x="786" y="50" rx="2" ry="2"/><rect class="c" x="786" y="66" rx="2" ry="2"/><rect class="c" x="786" y="82" rx="2" ry="2"/><rect class="c" x="786" y="98" rx="2" ry="2"/><rect class="c" x="802" y="2" rx="2" ry="2"/><rect class="c" x="802" y="18" rx="2" ry="2"/><rect class="c" x="802" y="34" rx="2" ry="2"/><rect class="c" x="802" y="50" rx="2" ry="2"/><rect class="c" x="802" y="66" rx="2" ry="2"/><rect class="c" x="802" y="82" rx="2" ry="2"/><rect class="c" x="802" y="98" rx="2" ry="2"/><rect class="c" x="818" y="2" rx="2" ry="2"/><rect class="c" x="818" y="18" rx="2" ry="2"/><rect class="c" x="818" y="34" rx="2" ry="2"/><rect class="c" x="818" y="50" rx="2" ry="2"/><rect class="c" x="818" y="66" rx="2" ry="2"/><rect class="c" x="818" y="82" rx="2" ry="2"/><rect class="c" x="818" y="98" rx="2" ry="2"/><rect class="c" x="834" y="2" rx="2" ry="2"/><rect class="c" x="834" y="18" rx="2" ry="2"/><rect class="c" x="834" y="34" rx="2" ry="2"/><rect class="c" x="834" y="50" rx="2" ry="2"/><rect class="c" x="834" y="66" rx="2" ry="2"/><rect class="c" x="834" y="82" rx="2" ry="2"/><rect class="u u0" height="12" width="702.4" x="0.0" y="144"/><rect class="u u1" height="12" width="117.6" x="701.8" y="144"/><rect class="u u2" height="12" width="29.8" x="818.8" y="144"/><rect class="s s0" x="0.8" y="0.8" width="14.4" height="14.4" rx="4.5" ry="4.5"/><rect class="s s1" x="1.8" y="1.8" width="12.3" height="12.3" rx="4.1" ry="4.1"/><rect class="s s2" x="2.6" y="2.6" width="10.8" height="10.8" rx="3.6" ry="3.6"/><rect class="s s3" x="3.0" y="3.0" width="9.9" height="9.9" rx="3.3" ry="3.3"/></svg>